<svg id="Layer_1" data-name="Layer 1" xmlns="http://www.w3.org/2000/svg" viewBox="0 0 1011.92 570.58"><defs><style>.cls-1{fill:#003049;stroke:#003049;}.cls-1,.cls-2,.cls-3{stroke-miterlimit:10;}.cls-2{fill:#f77f00;stroke:#f77f00;}.cls-3{fill:#d62828;stroke:#d62828;}</style></defs><path class="cls-1" d="M304.08,27.49s-184.28,5.84-258,84.16c-13.66,14.51-18.75,32.89-18.75,32.89-12,33.87-3.3,65-1.83,70,12.13,41.23,40.38,46.59,51,95a152.2,152.2,0,0,1,3,22c.76,8.61,9.63,108.91,59.19,167.08,56.44,66.23,158,68.42,224.94,70.61,125.77,4.12,142.59-33.9,253.59-23.22,103.91,10,112.29,45.53,198.47,43.53,58.2-1.34,172.42-20.28,207.29-86.09,39.1-73.79-62.43-129.37-48.51-275.68,7.51-79,39.53-85.78,26.46-121.88C965,6.56,707.76,14.7,304.08,27.49Z" transform="translate(-20.58 -19.5)"/><path class="cls-2" d="M192.5,59.5c-96.35,29.61-133,56.05-142,90-11.79,44.52,23.1,95,39,118,42.39,61.34,79.39,58.46,94,105,16.73,53.3-23.1,84.83-2.91,108.66,26.31,31,106.74-5.94,197.37,5.81,84.47,10.94,84.22,32.36,151.06,32.89,86,.67,100.26-34.68,172-26.12,70.65,8.42,79.71,45.44,134.52,41.59,51.24-3.59,110.3-40.64,122.39-87.05,18.51-71.07-87.51-108.62-77.18-190.57,9-71.52,95.4-87.55,87.1-128.65-2.78-13.78-18.7-52.6-388.11-88C415.06,25.25,312.08,22.75,192.5,59.5Z" transform="translate(-20.58 -19.5)"/><path class="cls-3" d="M91.5,133.5c-11.3,45.81,53.81,99.59,64,108,76.34,63.05,154.47,44.16,167,83,14.56,45.13-82.69,96.11-69.13,125.71,16.74,36.56,160.7-21.64,304.31,1,79.4,12.5,113.67,33,196.27,28.05,28.93-1.74,136.5-8.2,151-50.3,18.34-53.07-131.14-104.84-119.08-177,10.5-62.78,132.18-75,127.9-110.27-3-24.85-68.91-36.74-351.73-72.55C441.15,53.77,383.27,47.06,300.5,55.5,235.48,62.13,105.85,75.34,91.5,133.5Z" transform="translate(-20.58 -19.5)"/></svg>