<?xml version="1.0" encoding="UTF-8" standalone="no"?>
<!-- Created with Inkscape (http://www.inkscape.org/) -->

<svg
   xmlns:dc="http://purl.org/dc/elements/1.1/"
   xmlns:cc="http://creativecommons.org/ns#"
   xmlns:rdf="http://www.w3.org/1999/02/22-rdf-syntax-ns#"
   xmlns:svg="http://www.w3.org/2000/svg"
   xmlns="http://www.w3.org/2000/svg"
   xmlns:sodipodi="http://sodipodi.sourceforge.net/DTD/sodipodi-0.dtd"
   xmlns:inkscape="http://www.inkscape.org/namespaces/inkscape"
   width="56px"
   height="56px"
   viewBox="0 0 56 56"
   version="1.1"
   id="SVGRoot"
   sodipodi:docname="logo.svg"
   inkscape:version="0.92.1 r15371">
  <sodipodi:namedview
     id="base"
     pagecolor="#ffffff"
     bordercolor="#666666"
     borderopacity="1.0"
     inkscape:pageopacity="0.0"
     inkscape:pageshadow="2"
     inkscape:zoom="5.6568543"
     inkscape:cx="17.054057"
     inkscape:cy="-3.8736662"
     inkscape:document-units="px"
     inkscape:current-layer="layer1"
     showgrid="false"
     inkscape:window-width="1600"
     inkscape:window-height="840"
     inkscape:window-x="0"
     inkscape:window-y="0"
     inkscape:window-maximized="1"
     inkscape:grid-bbox="true"
     inkscape:measure-start="46.1172,14.9766"
     inkscape:measure-end="46.1172,15.3164"
     showguides="false" />
  <defs
     id="defs4485" />
  <metadata
     id="metadata4488">
    <rdf:RDF>
      <cc:Work
         rdf:about="">
        <dc:format>image/svg+xml</dc:format>
        <dc:type
           rdf:resource="http://purl.org/dc/dcmitype/StillImage" />
      </cc:Work>
    </rdf:RDF>
  </metadata>
  <g
     id="layer1"
     inkscape:groupmode="layer"
     inkscape:label="Layer 1">
    <path
       style="fill:#ff5023;fill-opacity:1;stroke-width:1.0083828"
       d="M 9.4667969 5.25 C 7.6152291 5.25 6.125 6.7402291 6.125 8.5917969 L 6.125 49.158203 C 6.125 51.009771 7.6152291 52.5 9.4667969 52.5 L 26.138672 52.5 C 27.99024 52.5 29.480469 51.009771 29.480469 49.158203 L 29.480469 8.5917969 C 29.480469 6.7402291 27.99024 5.25 26.138672 5.25 L 9.4667969 5.25 z M 12.109375 6.625 L 15.193359 6.625 L 15.193359 20.789062 L 12.109375 20.789062 L 12.109375 6.625 z M 12.109375 21.789062 L 17.810547 21.789062 C 18.801478 21.789062 19.717516 21.952186 20.560547 22.279297 C 21.403577 22.592186 22.12129 23.047198 22.712891 23.644531 C 23.319281 24.241865 23.792642 24.968932 24.132812 25.822266 C 24.472983 26.675599 24.642578 27.641767 24.642578 28.722656 C 24.642578 29.803545 24.488325 30.7915 24.177734 31.6875 C 23.881934 32.569278 23.452645 33.330703 22.890625 33.970703 C 22.328605 34.596481 21.656917 35.087804 20.873047 35.443359 C 20.089176 35.784693 19.223904 35.955078 18.277344 35.955078 L 12.109375 35.955078 L 12.109375 21.789062 z M 15.103516 24.242188 L 15.103516 33.544922 L 17.654297 33.544922 C 19.000188 33.544922 19.977594 33.146054 20.583984 32.349609 C 21.190375 31.538943 21.494141 30.329767 21.494141 28.722656 C 21.494141 27.926212 21.419384 27.24467 21.271484 26.675781 C 21.123584 26.106892 20.879233 25.644618 20.539062 25.289062 C 20.213682 24.919285 19.793041 24.654491 19.275391 24.498047 C 18.75774 24.32738 18.128172 24.242188 17.388672 24.242188 L 15.103516 24.242188 z M 12.109375 36.955078 L 18.609375 36.955078 C 19.334086 36.955078 19.983736 37.074628 20.560547 37.316406 C 21.137357 37.543962 21.634708 37.872161 22.048828 38.298828 C 22.462948 38.711273 22.780103 39.195333 23.001953 39.75 C 23.223803 40.304667 23.333984 40.901016 23.333984 41.541016 C 23.333984 42.181016 23.223803 42.779318 23.001953 43.333984 C 22.780103 43.874429 22.462948 44.343965 22.048828 44.742188 C 21.634708 45.126188 21.137357 45.430648 20.560547 45.658203 C 19.983736 45.871536 19.334086 45.978516 18.609375 45.978516 L 15.193359 45.978516 L 15.193359 51.119141 L 12.109375 51.119141 L 12.109375 36.955078 z M 15.193359 39.408203 L 15.193359 43.568359 L 18.121094 43.568359 C 19.008494 43.568359 19.644757 43.376188 20.029297 42.992188 C 20.428627 42.593965 20.628906 42.080856 20.628906 41.455078 C 20.628906 40.857745 20.428627 40.368375 20.029297 39.984375 C 19.644757 39.600375 19.008494 39.408203 18.121094 39.408203 L 15.193359 39.408203 z "
       id="rect5044" />
    <flowRoot
       xml:space="preserve"
       id="flowRoot5046"
       style="fill:black;fill-opacity:1;stroke:none;font-family:'Vera Humana 95';font-style:normal;font-weight:normal;font-size:21.33333333px;line-height:1.25;letter-spacing:0px;word-spacing:0px;-inkscape-font-specification:'Vera Humana 95, ';font-stretch:normal;font-variant:normal;"><flowRegion
         id="flowRegion5048"
         style="font-size:21.33333333px;"><rect
           id="rect5050"
           width="24.71875"
           height="47.46875"
           x="29.09375"
           y="5.25"
           style="font-size:21.33333333px;" /></flowRegion><flowPara
         id="flowPara5052" /></flowRoot>    <rect
       style="fill:#00b279;fill-opacity:1;stroke-width:0.82715178"
       id="rect5090"
       width="10.426891"
       height="23.349001"
       x="30.379999"
       y="5.249999"
       ry="3.0838149" />
    <rect
       style="fill:#00b279;fill-opacity:1;stroke-width:0.82715178"
       id="rect5090-3"
       width="10.426891"
       height="23.349001"
       x="30.379999"
       y="29.151001"
       ry="3.0838149" />
    <rect
       style="fill:#00b279;fill-opacity:1;stroke-width:0.51487333"
       id="rect5090-0-8"
       width="8.1841755"
       height="11.526"
       x="41.707001"
       y="17.025"
       ry="1.5222942" />
    <rect
       style="fill:#00b279;fill-opacity:1;stroke-width:0.51487333"
       id="rect5090-0-8-8"
       width="8.1841755"
       height="11.526"
       x="41.707001"
       y="5.2499995"
       ry="1.5222942" />
    <rect
       style="fill:#00b279;fill-opacity:1;stroke-width:0.51263493"
       id="rect5090-0-8-6"
       width="8.1841755"
       height="11.426"
       x="41.707001"
       y="40.925999"
       ry="1.5090867" />
    <rect
       style="fill:#00b279;fill-opacity:1;stroke-width:0.51263493"
       id="rect5090-0-8-8-0"
       width="8.1841755"
       height="11.426"
       x="41.707001"
       y="29.25"
       ry="1.5090867" />
  </g>
  <g
     inkscape:groupmode="layer"
     id="layer2"
     inkscape:label="Layer 2" />
</svg>
